#N canvas 989 358 539 591 12;
#X obj 365 295 hsl 128 15 1 100 1 0 empty empty decay_slider -2 -8
0 10 #dfdfdf #000000 #000000 0 0;
#X obj 345 315 * 100;
#X floatatom 345 338 5 0 0 0 - - - 0;
#X text 342 356 decay time in msec;
#X obj 345 238 loadbang;
#X msg 345 262 20;
#X obj 18 184 loadbang;
#X msg 18 206 1000;
#X floatatom 18 290 5 0 0 0 - - - 0;
#X obj 21 248 hsl 200 15 20 1500 0 0 empty empty noise_cleaning_level_Hz
-2 -8 0 10 #dfdfdf #000000 #000000 0 0;
#X obj 18 263 +;
#X text 16 320 noise cleaning level by default;
#X obj 147 555 dac~;
#X obj 15 80 hsl 200 15 100 20000 1 0 empty empty key_frequency_Hz
-2 -8 0 10 #dfdfdf #000000 #000000 0 0;
#X floatatom 12 100 5 0 0 0 - - - 0;
#X obj 431 335 int;
#X obj 369 131 hsl 128 15 1 100 1 0 empty empty attack_slider -2 -8
0 10 #dfdfdf #000000 #000000 0 0;
#X obj 349 151 * 100;
#X floatatom 349 174 5 0 0 0 - - - 0;
#X obj 349 74 loadbang;
#X text 346 192 attack time in msec;
#X obj 506 171 int;
#X obj 223 79 keyname;
#X floatatom 223 105 5 0 0 0 - - - 0;
#X symbolatom 269 105 10 0 0 0 - - - 0;
#X obj 223 128 select 0 1;
#X obj 148 459 clone lapland_voice 8;
#X obj 101 192 bng 19 250 50 0 empty empty empty 0 -10 0 12 #fcfcfc
#000000 #000000;
#X obj 148 108 f;
#X obj 101 288 f;
#X obj 148 391 pack \$1 \$2 \$3 \$4 \$5;
#X msg 148 435 next \$1 \$2 \$3 \$4 \$5;
#X obj 256 189 bng 19 250 50 0 empty empty empty 0 -10 0 12 #fcfcfc
#000000 #000000;
#X listbox 155 413 32 0 0 0 - - - 0;
#X msg 349 98 20;
#X obj 63 340 vu 15 120 empty empty -1 -8 0 10 #404040 #000000 1 0
;
#X obj 75 479 env~;
#X obj 62 512 - 90;
#X obj 147 522 *~;
#X obj 168 495 hsl 128 15 0 1 0 1 empty empty Volume -2 -8 0 10 #dfdfdf
#000000 #000000 10300 0;
#X floatatom 258 510 5 0 0 0 - - - 0;
#X obj 12 28 unpack \$1 \$2 \$3;
#X obj 12 5 inlet;
#X obj 141 48 / 100;
#X connect 0 0 1 0;
#X connect 1 0 2 0;
#X connect 1 0 15 1;
#X connect 1 0 32 0;
#X connect 4 0 5 0;
#X connect 5 0 0 0;
#X connect 6 0 7 0;
#X connect 7 0 9 0;
#X connect 9 0 10 0;
#X connect 9 0 29 1;
#X connect 9 0 32 0;
#X connect 9 0 27 0;
#X connect 10 0 8 0;
#X connect 13 0 14 0;
#X connect 13 0 28 1;
#X connect 13 0 27 0;
#X connect 13 0 32 0;
#X connect 15 0 30 3;
#X connect 15 0 30 4;
#X connect 16 0 17 0;
#X connect 17 0 18 0;
#X connect 17 0 21 1;
#X connect 17 0 32 0;
#X connect 19 0 34 0;
#X connect 21 0 30 2;
#X connect 22 0 23 0;
#X connect 22 1 24 0;
#X connect 23 0 25 0;
#X connect 25 1 32 0;
#X connect 26 0 38 0;
#X connect 27 0 28 0;
#X connect 27 0 29 0;
#X connect 28 0 30 0;
#X connect 29 0 30 1;
#X connect 30 0 33 0;
#X connect 30 0 31 0;
#X connect 31 0 26 0;
#X connect 32 0 28 0;
#X connect 32 0 29 0;
#X connect 32 0 21 0;
#X connect 32 0 15 0;
#X connect 34 0 16 0;
#X connect 36 0 37 0;
#X connect 37 0 35 0;
#X connect 38 0 12 0;
#X connect 39 0 40 0;
#X connect 39 0 38 1;
#X connect 41 0 13 0;
#X connect 41 1 9 0;
#X connect 41 2 43 0;
#X connect 42 0 41 0;
#X connect 43 0 16 0;
#X connect 43 0 0 0;
