#N canvas 88 242 404 527 12;
#X obj 41 79 inlet;
#X obj 60 437 outlet~;
#X text 34 52 for key signal together with noise level;
#X obj 41 124 unpack \$1 \$2 \$3 \$4 \$5;
#X obj 18 272 noise~;
#X msg 18 290 clear;
#X obj 61 336 *~;
#X obj 89 251 / 20;
#X floatatom 89 274 5 0 0 0 - - - 0;
#X obj 61 290 bp~;
#X floatatom 20 157 5 0 0 0 - - - 0;
#X floatatom 65 157 5 0 0 0 - - - 0;
#X text 25 175 freq;
#X text 63 175 noise;
#X floatatom 113 157 5 0 0 0 - - - 0;
#X text 104 175 attack;
#X floatatom 157 157 5 0 0 0 - - - 0;
#X text 155 175 decay;
#X floatatom 200 158 5 0 0 0 - - - 0;
#X text 198 174 grain;
#X obj 61 405 *~;
#X obj 156 360 vline~;
#X floatatom 209 404 5 0 0 0 - - - 0;
#X obj 209 380 snapshot~;
#X obj 285 367 metro 10;
#X obj 285 386 s bang;
#X obj 209 361 r bang;
#X listbox 162 276 20 0 0 0 - - - 0;
#X obj 156 251 pack \$1 \$2 \$3;
#X msg 156 330 1 \$1 \, 0 \$2 \$3;
#X connect 0 0 3 0;
#X connect 3 0 10 0;
#X connect 3 0 9 1;
#X connect 3 0 24 0;
#X connect 3 1 11 0;
#X connect 3 1 7 0;
#X connect 3 1 9 2;
#X connect 3 2 14 0;
#X connect 3 2 28 0;
#X connect 3 3 16 0;
#X connect 3 3 28 1;
#X connect 3 4 18 0;
#X connect 3 4 28 2;
#X connect 4 0 9 0;
#X connect 5 0 9 0;
#X connect 6 0 20 0;
#X connect 7 0 8 0;
#X connect 7 0 6 1;
#X connect 9 0 6 0;
#X connect 20 0 1 0;
#X connect 21 0 23 0;
#X connect 21 0 20 1;
#X connect 23 0 22 0;
#X connect 24 0 25 0;
#X connect 26 0 23 0;
#X connect 28 0 27 0;
#X connect 28 0 29 0;
#X connect 29 0 21 0;
